<?xml version="1.0" encoding="UTF-8"?>
<svg width="877px" height="877px" viewBox="0 0 877 877" version="1.1" xmlns="http://www.w3.org/2000/svg" xmlns:xlink="http://www.w3.org/1999/xlink">
    <!-- Generator: Sketch 59 (86127) - https://sketch.com -->
    <title>logo</title>
    <desc>Created with Sketch.</desc>
    <g id="Page-1" stroke="none" stroke-width="1" fill="none" fill-rule="evenodd">
        <g id="logo" fill="#FFFFFF" fill-rule="nonzero">
            <path d="M438.397,0.7 C196.419,0.7 0.257,196.851 0.257,438.84 C0.257,680.814 196.419,876.981 438.397,876.981 C584.499,876.981 713.808,805.401 793.411,695.472 L766.057,675.701 C692.5,777.236 573.091,843.449 438.404,843.449 C215.294,843.449 33.792,661.943 33.792,438.839 C33.792,215.736 215.294,34.23 438.404,34.23 C646.037,34.23 817.557,191.478 840.358,393.12 L834.985,393.12 C812.214,194.417 643.094,39.559 438.404,39.559 C218.237,39.559 39.115,218.676 39.115,438.84 C39.115,659.004 218.238,838.122 438.404,838.122 C571.317,838.122 689.148,772.767 761.733,672.577 L736.757,654.524 C669.778,746.966 561.037,807.255 438.404,807.255 C235.259,807.255 69.986,641.985 69.986,438.839 C69.986,235.694 235.26,70.423 438.404,70.423 C626.057,70.423 781.281,211.487 803.881,393.119 L798.508,393.119 C775.939,214.433 623.115,75.751 438.404,75.751 C238.195,75.751 75.31,238.631 75.31,438.838 C75.31,639.044 238.195,801.923 438.404,801.923 C559.261,801.923 666.448,742.514 732.467,651.41 L707.461,633.336 C647.064,716.707 548.988,771.059 438.403,771.059 C255.215,771.059 106.179,622.026 106.179,438.838 C106.179,255.65 255.216,106.616 438.403,106.616 C606.069,106.616 745.038,231.496 767.395,393.118 L762.03,393.118 C739.714,234.442 603.127,111.944 438.403,111.944 C258.148,111.944 111.503,258.589 111.503,438.837 C111.503,619.085 258.148,765.73 438.403,765.73 C547.213,765.73 643.703,712.236 703.129,630.204 L678.183,612.182 C624.349,686.445 536.941,734.866 438.404,734.866 C275.17,734.866 142.374,602.069 142.374,438.838 C142.374,275.607 275.17,142.812 438.404,142.812 C586.083,142.812 708.837,251.52 730.882,393.119 L725.473,393.119 C703.473,254.475 583.133,148.139 438.405,148.139 C278.114,148.139 147.699,278.547 147.699,438.838 C147.699,599.13 278.114,729.538 438.405,729.538 C535.168,729.538 621.006,681.995 673.865,609.057 L648.751,590.901 C601.506,656.092 524.899,698.672 438.405,698.672 C295.129,698.672 178.569,582.113 178.569,438.839 C178.569,295.566 295.129,179.006 438.405,179.006 C566.075,179.006 672.447,271.582 694.127,393.119 L688.718,393.119 C667.105,274.536 563.125,184.333 438.405,184.333 C298.072,184.333 183.893,298.505 183.893,438.838 C183.893,579.172 298.072,693.343 438.405,693.343 C523.113,693.343 598.161,651.635 644.447,587.788 L617.446,568.264 C577.3,623.707 512.09,659.813 438.399,659.813 C316.359,659.813 217.424,560.874 217.424,438.838 C217.424,316.794 316.359,217.863 438.399,217.863 C544.764,217.863 633.549,293.013 654.611,393.119 L598.415,393.119 L524.393,374.606 C514.816,372.217 496.69,370.261 484.118,370.261 L407.919,370.261 L407.919,340.116 C407.919,335.904 404.512,332.496 400.3,332.496 C396.092,332.496 392.68,335.904 392.68,340.116 L392.68,370.261 L369.82,370.261 C357.244,370.261 346.962,380.544 346.962,393.119 L346.962,484.557 C346.962,497.125 357.245,507.416 369.82,507.416 L484.118,507.416 C496.69,507.416 516.96,504.916 529.156,501.864 L598.416,484.556 L876.539,484.556 L876.539,438.837 C876.539,196.851 680.378,0.7 438.397,0.7" id="Shape"></path>
        </g>
    </g>
</svg>